<mxfile host="app.diagrams.net" agent="Mozilla/5.0 (Windows NT 10.0; Win64; x64) AppleWebKit/537.36 (KHTML, like Gecko) Chrome/139.0.0.0 Safari/537.36" version="28.2.1">
  <diagram id="C5RBs43oDa-KdzZeNtuy" name="Page-1">
    <mxGraphModel dx="2205" dy="1095" grid="1" gridSize="10" guides="1" tooltips="1" connect="1" arrows="1" fold="1" page="1" pageScale="1" pageWidth="2339" pageHeight="3300" math="0" shadow="0">
      <root>
        <mxCell id="WIyWlLk6GJQsqaUBKTNV-0" />
        <mxCell id="WIyWlLk6GJQsqaUBKTNV-1" parent="WIyWlLk6GJQsqaUBKTNV-0" />
        <mxCell id="UsbTpY0gdDbQ-GkFnXvP-0" value="&lt;font face=&quot;Times New Roman&quot;&gt;START&lt;/font&gt;" style="ellipse;whiteSpace=wrap;html=1;" parent="WIyWlLk6GJQsqaUBKTNV-1" vertex="1">
          <mxGeometry x="1199.75" y="100" width="75" height="30" as="geometry" />
        </mxCell>
        <mxCell id="UsbTpY0gdDbQ-GkFnXvP-1" value="&lt;div style=&quot;text-wrap-mode: nowrap;&quot;&gt;&lt;font style=&quot;font-size: 14px;&quot; face=&quot;Times New Roman&quot;&gt;Read Parameters&amp;nbsp;&lt;/font&gt;&lt;/div&gt;&lt;div style=&quot;text-wrap-mode: nowrap;&quot;&gt;&lt;font style=&quot;font-size: 14px;&quot;&gt;&lt;font face=&quot;Times New Roman&quot;&gt;from PZEM;&amp;nbsp;&lt;/font&gt;&lt;span style=&quot;font-family: &amp;quot;Times New Roman&amp;quot;; background-color: transparent; color: light-dark(rgb(0, 0, 0), rgb(255, 255, 255));&quot;&gt;Voltage,&lt;/span&gt;&lt;/font&gt;&lt;/div&gt;&lt;div style=&quot;text-wrap-mode: nowrap;&quot;&gt;&lt;font style=&quot;font-size: 14px;&quot;&gt;&lt;span style=&quot;font-family: &amp;quot;Times New Roman&amp;quot;; background-color: transparent; color: light-dark(rgb(0, 0, 0), rgb(255, 255, 255));&quot;&gt;Current,&amp;nbsp;&lt;/span&gt;&lt;span style=&quot;font-family: &amp;quot;Times New Roman&amp;quot;; background-color: transparent; color: light-dark(rgb(0, 0, 0), rgb(255, 255, 255));&quot;&gt;Power,&amp;nbsp;&lt;/span&gt;&lt;span style=&quot;font-family: &amp;quot;Times New Roman&amp;quot;; background-color: transparent; color: light-dark(rgb(0, 0, 0), rgb(255, 255, 255));&quot;&gt;Energy&lt;/span&gt;&lt;/font&gt;&lt;/div&gt;" style="shape=parallelogram;perimeter=parallelogramPerimeter;whiteSpace=wrap;html=1;fixedSize=1;" parent="WIyWlLk6GJQsqaUBKTNV-1" vertex="1">
          <mxGeometry x="1149" y="144" width="177.5" height="70" as="geometry" />
        </mxCell>
        <mxCell id="UsbTpY0gdDbQ-GkFnXvP-21" value="" style="edgeStyle=orthogonalEdgeStyle;rounded=0;orthogonalLoop=1;jettySize=auto;html=1;endArrow=open;endFill=0;entryX=0.5;entryY=0;entryDx=0;entryDy=0;entryPerimeter=0;exitX=1;exitY=0.5;exitDx=0;exitDy=0;" parent="WIyWlLk6GJQsqaUBKTNV-1" source="B7yCwA9z2qg-xHh8Ljfs-2" target="UsbTpY0gdDbQ-GkFnXvP-26" edge="1">
          <mxGeometry relative="1" as="geometry">
            <mxPoint x="1268.5" y="874.05" as="sourcePoint" />
          </mxGeometry>
        </mxCell>
        <mxCell id="UsbTpY0gdDbQ-GkFnXvP-12" value="&lt;font face=&quot;Times New Roman&quot;&gt;END&lt;/font&gt;" style="ellipse;whiteSpace=wrap;html=1;" parent="WIyWlLk6GJQsqaUBKTNV-1" vertex="1">
          <mxGeometry x="1201.75" y="792" width="75" height="30" as="geometry" />
        </mxCell>
        <mxCell id="UsbTpY0gdDbQ-GkFnXvP-24" value="" style="endArrow=open;html=1;rounded=0;exitX=1;exitY=0.5;exitDx=0;exitDy=0;entryX=1;entryY=0.5;entryDx=0;entryDy=0;endFill=0;exitPerimeter=0;" parent="WIyWlLk6GJQsqaUBKTNV-1" source="UsbTpY0gdDbQ-GkFnXvP-26" target="UsbTpY0gdDbQ-GkFnXvP-1" edge="1">
          <mxGeometry width="50" height="50" relative="1" as="geometry">
            <mxPoint x="1214" y="360" as="sourcePoint" />
            <mxPoint x="1264" y="310" as="targetPoint" />
            <Array as="points">
              <mxPoint x="1430" y="725" />
              <mxPoint x="1430" y="179" />
            </Array>
          </mxGeometry>
        </mxCell>
        <mxCell id="UsbTpY0gdDbQ-GkFnXvP-26" value="&lt;font style=&quot;font-size: 14px;&quot; face=&quot;Times New Roman&quot;&gt;Switch ON ?&lt;/font&gt;" style="strokeWidth=1;html=1;shape=mxgraph.flowchart.decision;whiteSpace=wrap;" parent="WIyWlLk6GJQsqaUBKTNV-1" vertex="1">
          <mxGeometry x="1170.5" y="680.05" width="137.5" height="90" as="geometry" />
        </mxCell>
        <mxCell id="UsbTpY0gdDbQ-GkFnXvP-30" value="&lt;h6&gt;&lt;span style=&quot;color: light-dark(rgb(0, 0, 0), rgb(255, 255, 255)); font-weight: normal;&quot;&gt;&lt;font style=&quot;font-size: 12px;&quot; face=&quot;Times New Roman&quot;&gt;NO&lt;/font&gt;&lt;/span&gt;&lt;/h6&gt;&lt;div&gt;&lt;/div&gt;" style="text;html=1;align=center;verticalAlign=middle;resizable=0;points=[];autosize=1;strokeColor=none;fillColor=none;" parent="WIyWlLk6GJQsqaUBKTNV-1" vertex="1">
          <mxGeometry x="1239.5" y="744.02" width="40" height="70" as="geometry" />
        </mxCell>
        <mxCell id="UsbTpY0gdDbQ-GkFnXvP-34" value="&lt;div style=&quot;text-wrap-mode: nowrap;&quot;&gt;&lt;font style=&quot;font-size: 14px;&quot; face=&quot;Times New Roman&quot;&gt;Process Data on ESP32;&lt;/font&gt;&lt;/div&gt;&lt;div style=&quot;text-wrap-mode: nowrap;&quot;&gt;&lt;font style=&quot;font-size: 14px;&quot; face=&quot;Times New Roman&quot;&gt;Format and Analyze&amp;nbsp;&lt;/font&gt;&lt;/div&gt;&lt;div style=&quot;text-wrap-mode: nowrap;&quot;&gt;&lt;font style=&quot;font-size: 14px;&quot; face=&quot;Times New Roman&quot;&gt;Sensor Data&lt;/font&gt;&lt;/div&gt;" style="rounded=0;whiteSpace=wrap;html=1;" parent="WIyWlLk6GJQsqaUBKTNV-1" vertex="1">
          <mxGeometry x="1156" y="232" width="162.5" height="58" as="geometry" />
        </mxCell>
        <mxCell id="UsbTpY0gdDbQ-GkFnXvP-36" value="" style="edgeStyle=orthogonalEdgeStyle;rounded=0;orthogonalLoop=1;jettySize=auto;html=1;endArrow=open;endFill=0;exitX=0.5;exitY=1;exitDx=0;exitDy=0;entryX=0;entryY=0.5;entryDx=0;entryDy=0;" parent="WIyWlLk6GJQsqaUBKTNV-1" source="UsbTpY0gdDbQ-GkFnXvP-34" target="B7yCwA9z2qg-xHh8Ljfs-0" edge="1">
          <mxGeometry relative="1" as="geometry">
            <mxPoint x="1311" y="350" as="sourcePoint" />
            <mxPoint x="1395.25" y="472.5" as="targetPoint" />
          </mxGeometry>
        </mxCell>
        <mxCell id="UsbTpY0gdDbQ-GkFnXvP-39" value="&lt;h6&gt;&lt;span style=&quot;color: light-dark(rgb(0, 0, 0), rgb(255, 255, 255)); font-weight: normal;&quot;&gt;&lt;font style=&quot;font-size: 12px;&quot; face=&quot;Times New Roman&quot;&gt;YES&lt;/font&gt;&lt;/span&gt;&lt;/h6&gt;&lt;div&gt;&lt;/div&gt;" style="text;html=1;align=center;verticalAlign=middle;resizable=0;points=[];autosize=1;strokeColor=none;fillColor=none;" parent="WIyWlLk6GJQsqaUBKTNV-1" vertex="1">
          <mxGeometry x="1296.75" y="674" width="50" height="70" as="geometry" />
        </mxCell>
        <mxCell id="UsbTpY0gdDbQ-GkFnXvP-40" value="" style="edgeStyle=orthogonalEdgeStyle;rounded=0;orthogonalLoop=1;jettySize=auto;html=1;endArrow=open;endFill=0;exitX=0.5;exitY=1;exitDx=0;exitDy=0;entryX=0.5;entryY=0;entryDx=0;entryDy=0;" parent="WIyWlLk6GJQsqaUBKTNV-1" source="UsbTpY0gdDbQ-GkFnXvP-1" target="UsbTpY0gdDbQ-GkFnXvP-34" edge="1">
          <mxGeometry relative="1" as="geometry">
            <mxPoint x="1222.25" y="550" as="sourcePoint" />
            <mxPoint x="1222.25" y="603" as="targetPoint" />
          </mxGeometry>
        </mxCell>
        <mxCell id="UsbTpY0gdDbQ-GkFnXvP-46" value="" style="edgeStyle=orthogonalEdgeStyle;rounded=0;orthogonalLoop=1;jettySize=auto;html=1;endArrow=open;endFill=0;exitX=0.5;exitY=1;exitDx=0;exitDy=0;entryX=0.5;entryY=0;entryDx=0;entryDy=0;" parent="WIyWlLk6GJQsqaUBKTNV-1" source="UsbTpY0gdDbQ-GkFnXvP-0" target="UsbTpY0gdDbQ-GkFnXvP-1" edge="1">
          <mxGeometry relative="1" as="geometry">
            <mxPoint x="1222.25" y="260" as="sourcePoint" />
            <mxPoint x="1229.75" y="180" as="targetPoint" />
          </mxGeometry>
        </mxCell>
        <mxCell id="B7yCwA9z2qg-xHh8Ljfs-0" value="&lt;div style=&quot;forced-color-adjust: none; color: rgb(0, 0, 0); font-style: normal; font-variant-ligatures: normal; font-variant-caps: normal; font-weight: 400; letter-spacing: normal; orphans: 2; text-align: center; text-indent: 0px; text-transform: none; widows: 2; word-spacing: 0px; -webkit-text-stroke-width: 0px; white-space: nowrap; text-decoration-thickness: initial; text-decoration-style: initial; text-decoration-color: initial;&quot;&gt;&lt;font style=&quot;font-size: 14px;&quot; face=&quot;Times New Roman&quot;&gt;Energy &lt;span style=&quot;background-color: transparent; color: light-dark(rgb(0, 0, 0), rgb(255, 255, 255)); text-wrap-mode: wrap;&quot;&gt;â‰¥ Limit set&amp;nbsp;&lt;/span&gt;&lt;/font&gt;&lt;/div&gt;&lt;div style=&quot;forced-color-adjust: none; color: rgb(0, 0, 0); font-style: normal; font-variant-ligatures: normal; font-variant-caps: normal; font-weight: 400; letter-spacing: normal; orphans: 2; text-align: center; text-indent: 0px; text-transform: none; widows: 2; word-spacing: 0px; -webkit-text-stroke-width: 0px; white-space: nowrap; text-decoration-thickness: initial; text-decoration-style: initial; text-decoration-color: initial;&quot;&gt;&lt;font style=&quot;font-size: 14px;&quot; face=&quot;Times New Roman&quot;&gt;&lt;span style=&quot;background-color: transparent; color: light-dark(rgb(0, 0, 0), rgb(255, 255, 255)); text-wrap-mode: wrap;&quot;&gt;from Keypad/Blynk&lt;/span&gt;&lt;/font&gt;&lt;/div&gt;" style="rhombus;whiteSpace=wrap;html=1;direction=south;" parent="WIyWlLk6GJQsqaUBKTNV-1" vertex="1">
          <mxGeometry x="1107.25" y="311" width="260" height="77" as="geometry" />
        </mxCell>
        <mxCell id="B7yCwA9z2qg-xHh8Ljfs-1" value="&lt;div style=&quot;forced-color-adjust: none; color: rgb(0, 0, 0); font-style: normal; font-variant-ligatures: normal; font-variant-caps: normal; font-weight: 400; letter-spacing: normal; orphans: 2; text-align: center; text-indent: 0px; text-transform: none; widows: 2; word-spacing: 0px; -webkit-text-stroke-width: 0px; white-space: nowrap; text-decoration-thickness: initial; text-decoration-style: initial; text-decoration-color: initial;&quot;&gt;&lt;font face=&quot;Times New Roman&quot;&gt;&lt;span style=&quot;font-size: 14px;&quot;&gt;Voltage&amp;nbsp;&lt;/span&gt;&lt;/font&gt;&lt;span style=&quot;font-family: &amp;quot;Times New Roman&amp;quot;, serif; font-size: 12pt; background-color: transparent; color: light-dark(rgb(0, 0, 0), rgb(255, 255, 255)); text-wrap-mode: wrap;&quot;&gt;â‰¤&lt;/span&gt;&lt;span style=&quot;font-size: 14px; font-family: &amp;quot;Times New Roman&amp;quot;; color: light-dark(rgb(0, 0, 0), rgb(237, 237, 237)); background-color: transparent;&quot;&gt;&amp;nbsp;180V&lt;/span&gt;&lt;/div&gt;&lt;div style=&quot;forced-color-adjust: none; color: rgb(0, 0, 0); font-style: normal; font-variant-ligatures: normal; font-variant-caps: normal; font-weight: 400; letter-spacing: normal; orphans: 2; text-align: center; text-indent: 0px; text-transform: none; widows: 2; word-spacing: 0px; -webkit-text-stroke-width: 0px; white-space: nowrap; text-decoration-thickness: initial; text-decoration-style: initial; text-decoration-color: initial;&quot;&gt;&lt;font face=&quot;Times New Roman&quot;&gt;&lt;span style=&quot;font-size: 14px;&quot;&gt;or Voltage&amp;nbsp;&lt;/span&gt;&lt;/font&gt;&lt;span style=&quot;font-family: &amp;quot;Times New Roman&amp;quot;, serif; font-size: 12pt; background-color: transparent; color: light-dark(rgb(0, 0, 0), rgb(255, 255, 255)); text-wrap-mode: wrap;&quot;&gt;â‰¥&lt;/span&gt;&lt;span style=&quot;font-size: 14px; font-family: &amp;quot;Times New Roman&amp;quot;; color: light-dark(rgb(0, 0, 0), rgb(237, 237, 237)); background-color: transparent;&quot;&gt;&amp;nbsp;250V&lt;/span&gt;&lt;/div&gt;&lt;div style=&quot;forced-color-adjust: none; color: rgb(0, 0, 0); font-style: normal; font-variant-ligatures: normal; font-variant-caps: normal; font-weight: 400; letter-spacing: normal; orphans: 2; text-align: center; text-indent: 0px; text-transform: none; widows: 2; word-spacing: 0px; -webkit-text-stroke-width: 0px; white-space: nowrap; text-decoration-thickness: initial; text-decoration-style: initial; text-decoration-color: initial;&quot;&gt;&lt;font face=&quot;Times New Roman&quot;&gt;&lt;span style=&quot;font-size: 14px;&quot;&gt;or Current&amp;nbsp;&lt;/span&gt;&lt;/font&gt;&lt;span style=&quot;font-family: &amp;quot;Times New Roman&amp;quot;, serif; font-size: 12pt; background-color: transparent; color: light-dark(rgb(0, 0, 0), rgb(255, 255, 255)); text-wrap-mode: wrap;&quot;&gt;â‰¥&lt;/span&gt;&lt;span style=&quot;font-size: 14px; font-family: &amp;quot;Times New Roman&amp;quot;; color: light-dark(rgb(0, 0, 0), rgb(237, 237, 237)); background-color: transparent;&quot;&gt;&amp;nbsp;10A&lt;/span&gt;&lt;/div&gt;" style="rhombus;whiteSpace=wrap;html=1;direction=south;" parent="WIyWlLk6GJQsqaUBKTNV-1" vertex="1">
          <mxGeometry x="1109.25" y="409" width="260" height="87" as="geometry" />
        </mxCell>
        <mxCell id="B7yCwA9z2qg-xHh8Ljfs-2" value="&lt;div style=&quot;forced-color-adjust: none; color: rgb(0, 0, 0); font-style: normal; font-variant-ligatures: normal; font-variant-caps: normal; font-weight: 400; letter-spacing: normal; orphans: 2; text-align: center; text-indent: 0px; text-transform: none; widows: 2; word-spacing: 0px; -webkit-text-stroke-width: 0px; white-space: nowrap; text-decoration-thickness: initial; text-decoration-style: initial; text-decoration-color: initial;&quot;&gt;&lt;font face=&quot;Times New Roman&quot;&gt;&lt;span style=&quot;font-size: 14px;&quot;&gt;Reset Command&lt;/span&gt;&lt;/font&gt;&lt;/div&gt;&lt;div style=&quot;forced-color-adjust: none; color: rgb(0, 0, 0); font-style: normal; font-variant-ligatures: normal; font-variant-caps: normal; font-weight: 400; letter-spacing: normal; orphans: 2; text-align: center; text-indent: 0px; text-transform: none; widows: 2; word-spacing: 0px; -webkit-text-stroke-width: 0px; white-space: nowrap; text-decoration-thickness: initial; text-decoration-style: initial; text-decoration-color: initial;&quot;&gt;&lt;font face=&quot;Times New Roman&quot;&gt;&lt;span style=&quot;font-size: 14px;&quot;&gt;received?&lt;/span&gt;&lt;/font&gt;&lt;/div&gt;" style="rhombus;whiteSpace=wrap;html=1;direction=south;" parent="WIyWlLk6GJQsqaUBKTNV-1" vertex="1">
          <mxGeometry x="1152.5" y="591" width="173" height="73" as="geometry" />
        </mxCell>
        <mxCell id="B7yCwA9z2qg-xHh8Ljfs-7" value="" style="edgeStyle=orthogonalEdgeStyle;rounded=0;orthogonalLoop=1;jettySize=auto;html=1;endArrow=open;endFill=0;entryX=-0.003;entryY=0.505;entryDx=0;entryDy=0;entryPerimeter=0;exitX=1;exitY=0.5;exitDx=0;exitDy=0;" parent="WIyWlLk6GJQsqaUBKTNV-1" source="B7yCwA9z2qg-xHh8Ljfs-0" target="B7yCwA9z2qg-xHh8Ljfs-1" edge="1">
          <mxGeometry relative="1" as="geometry">
            <mxPoint x="1237" y="390" as="sourcePoint" />
            <mxPoint x="1239" y="404" as="targetPoint" />
          </mxGeometry>
        </mxCell>
        <mxCell id="B7yCwA9z2qg-xHh8Ljfs-9" value="" style="edgeStyle=orthogonalEdgeStyle;rounded=0;orthogonalLoop=1;jettySize=auto;html=1;endArrow=open;endFill=0;entryX=0;entryY=0.5;entryDx=0;entryDy=0;exitX=1;exitY=0.5;exitDx=0;exitDy=0;" parent="WIyWlLk6GJQsqaUBKTNV-1" source="B7yCwA9z2qg-xHh8Ljfs-28" target="B7yCwA9z2qg-xHh8Ljfs-2" edge="1">
          <mxGeometry relative="1" as="geometry">
            <mxPoint x="1239.5" y="576" as="sourcePoint" />
            <mxPoint x="1275.5" y="507" as="targetPoint" />
          </mxGeometry>
        </mxCell>
        <mxCell id="B7yCwA9z2qg-xHh8Ljfs-10" value="&lt;font face=&quot;Times New Roman&quot;&gt;&lt;span style=&quot;font-size: 14px;&quot;&gt;Relay OFF&lt;/span&gt;&lt;/font&gt;" style="rounded=0;whiteSpace=wrap;html=1;" parent="WIyWlLk6GJQsqaUBKTNV-1" vertex="1">
          <mxGeometry x="945" y="591" width="102.5" height="30.97" as="geometry" />
        </mxCell>
        <mxCell id="B7yCwA9z2qg-xHh8Ljfs-13" value="" style="edgeStyle=orthogonalEdgeStyle;rounded=0;orthogonalLoop=1;jettySize=auto;html=1;entryX=0.5;entryY=0;entryDx=0;entryDy=0;endArrow=open;endFill=0;exitX=0.5;exitY=1;exitDx=0;exitDy=0;" parent="WIyWlLk6GJQsqaUBKTNV-1" source="B7yCwA9z2qg-xHh8Ljfs-0" target="B7yCwA9z2qg-xHh8Ljfs-10" edge="1">
          <mxGeometry relative="1" as="geometry">
            <mxPoint x="1135.2500000000002" y="349.5" as="sourcePoint" />
            <mxPoint x="1172" y="733" as="targetPoint" />
          </mxGeometry>
        </mxCell>
        <mxCell id="B7yCwA9z2qg-xHh8Ljfs-14" value="" style="edgeStyle=orthogonalEdgeStyle;rounded=0;orthogonalLoop=1;jettySize=auto;html=1;endArrow=open;endFill=0;entryX=0.5;entryY=0;entryDx=0;entryDy=0;exitX=0.5;exitY=1;exitDx=0;exitDy=0;" parent="WIyWlLk6GJQsqaUBKTNV-1" source="B7yCwA9z2qg-xHh8Ljfs-1" target="B7yCwA9z2qg-xHh8Ljfs-10" edge="1">
          <mxGeometry relative="1" as="geometry">
            <mxPoint x="1137.3858411703238" y="452.5454545454543" as="sourcePoint" />
            <mxPoint x="1103.5" y="639" as="targetPoint" />
          </mxGeometry>
        </mxCell>
        <mxCell id="B7yCwA9z2qg-xHh8Ljfs-15" value="" style="edgeStyle=orthogonalEdgeStyle;rounded=0;orthogonalLoop=1;jettySize=auto;html=1;endArrow=open;endFill=0;entryX=0.5;entryY=0;entryDx=0;entryDy=0;exitX=0.5;exitY=1;exitDx=0;exitDy=0;" parent="WIyWlLk6GJQsqaUBKTNV-1" source="B7yCwA9z2qg-xHh8Ljfs-2" target="B7yCwA9z2qg-xHh8Ljfs-23" edge="1">
          <mxGeometry relative="1" as="geometry">
            <mxPoint x="1154" y="630" as="sourcePoint" />
            <mxPoint x="1173.5" y="681" as="targetPoint" />
          </mxGeometry>
        </mxCell>
        <mxCell id="B7yCwA9z2qg-xHh8Ljfs-17" value="&lt;h6&gt;&lt;span style=&quot;color: light-dark(rgb(0, 0, 0), rgb(255, 255, 255)); font-weight: normal;&quot;&gt;&lt;font style=&quot;font-size: 12px;&quot; face=&quot;Times New Roman&quot;&gt;YES&lt;/font&gt;&lt;/span&gt;&lt;/h6&gt;&lt;div&gt;&lt;/div&gt;" style="text;html=1;align=center;verticalAlign=middle;resizable=0;points=[];autosize=1;strokeColor=none;fillColor=none;" parent="WIyWlLk6GJQsqaUBKTNV-1" vertex="1">
          <mxGeometry x="1057.25" y="300" width="50" height="70" as="geometry" />
        </mxCell>
        <mxCell id="B7yCwA9z2qg-xHh8Ljfs-18" value="&lt;h6&gt;&lt;span style=&quot;color: light-dark(rgb(0, 0, 0), rgb(255, 255, 255)); font-weight: normal;&quot;&gt;&lt;font style=&quot;font-size: 12px;&quot; face=&quot;Times New Roman&quot;&gt;YES&lt;/font&gt;&lt;/span&gt;&lt;/h6&gt;&lt;div&gt;&lt;/div&gt;" style="text;html=1;align=center;verticalAlign=middle;resizable=0;points=[];autosize=1;strokeColor=none;fillColor=none;" parent="WIyWlLk6GJQsqaUBKTNV-1" vertex="1">
          <mxGeometry x="1057.25" y="403" width="50" height="70" as="geometry" />
        </mxCell>
        <mxCell id="B7yCwA9z2qg-xHh8Ljfs-19" value="&lt;h6&gt;&lt;span style=&quot;color: light-dark(rgb(0, 0, 0), rgb(255, 255, 255)); font-weight: normal;&quot;&gt;&lt;font style=&quot;font-size: 12px;&quot; face=&quot;Times New Roman&quot;&gt;YES&lt;/font&gt;&lt;/span&gt;&lt;/h6&gt;&lt;div&gt;&lt;/div&gt;" style="text;html=1;align=center;verticalAlign=middle;resizable=0;points=[];autosize=1;strokeColor=none;fillColor=none;" parent="WIyWlLk6GJQsqaUBKTNV-1" vertex="1">
          <mxGeometry x="1120.5" y="579.08" width="50" height="70" as="geometry" />
        </mxCell>
        <mxCell id="B7yCwA9z2qg-xHh8Ljfs-20" value="&lt;h6&gt;&lt;span style=&quot;color: light-dark(rgb(0, 0, 0), rgb(255, 255, 255)); font-weight: normal;&quot;&gt;&lt;font style=&quot;font-size: 12px;&quot; face=&quot;Times New Roman&quot;&gt;NO&lt;/font&gt;&lt;/span&gt;&lt;/h6&gt;&lt;div&gt;&lt;/div&gt;" style="text;html=1;align=center;verticalAlign=middle;resizable=0;points=[];autosize=1;strokeColor=none;fillColor=none;" parent="WIyWlLk6GJQsqaUBKTNV-1" vertex="1">
          <mxGeometry x="1239.5" y="637" width="40" height="70" as="geometry" />
        </mxCell>
        <mxCell id="B7yCwA9z2qg-xHh8Ljfs-21" value="&lt;h6&gt;&lt;span style=&quot;color: light-dark(rgb(0, 0, 0), rgb(255, 255, 255)); font-weight: normal;&quot;&gt;&lt;font style=&quot;font-size: 12px;&quot; face=&quot;Times New Roman&quot;&gt;NO&lt;/font&gt;&lt;/span&gt;&lt;/h6&gt;&lt;div&gt;&lt;/div&gt;" style="text;html=1;align=center;verticalAlign=middle;resizable=0;points=[];autosize=1;strokeColor=none;fillColor=none;" parent="WIyWlLk6GJQsqaUBKTNV-1" vertex="1">
          <mxGeometry x="1237.5" y="473" width="40" height="70" as="geometry" />
        </mxCell>
        <mxCell id="B7yCwA9z2qg-xHh8Ljfs-22" value="&lt;h6&gt;&lt;span style=&quot;color: light-dark(rgb(0, 0, 0), rgb(255, 255, 255)); font-weight: normal;&quot;&gt;&lt;font style=&quot;font-size: 12px;&quot; face=&quot;Times New Roman&quot;&gt;NO&lt;/font&gt;&lt;/span&gt;&lt;/h6&gt;&lt;div&gt;&lt;/div&gt;" style="text;html=1;align=center;verticalAlign=middle;resizable=0;points=[];autosize=1;strokeColor=none;fillColor=none;" parent="WIyWlLk6GJQsqaUBKTNV-1" vertex="1">
          <mxGeometry x="1234.75" y="360" width="40" height="70" as="geometry" />
        </mxCell>
        <mxCell id="B7yCwA9z2qg-xHh8Ljfs-23" value="&lt;font face=&quot;Times New Roman&quot;&gt;&lt;span style=&quot;font-size: 14px;&quot;&gt;Energy Reset&lt;/span&gt;&lt;/font&gt;" style="rounded=0;whiteSpace=wrap;html=1;" parent="WIyWlLk6GJQsqaUBKTNV-1" vertex="1">
          <mxGeometry x="1036.5" y="649.0799999999999" width="102.5" height="30.97" as="geometry" />
        </mxCell>
        <mxCell id="B7yCwA9z2qg-xHh8Ljfs-40" value="" style="edgeStyle=orthogonalEdgeStyle;rounded=0;orthogonalLoop=1;jettySize=auto;html=1;endArrow=open;endFill=0;exitX=0.5;exitY=1;exitDx=0;exitDy=0;entryX=0;entryY=0.5;entryDx=0;entryDy=0;" parent="WIyWlLk6GJQsqaUBKTNV-1" source="B7yCwA9z2qg-xHh8Ljfs-10" target="B7yCwA9z2qg-xHh8Ljfs-24" edge="1">
          <mxGeometry relative="1" as="geometry">
            <mxPoint x="1008.25" y="616" as="sourcePoint" />
            <mxPoint x="1047.5" y="719.0799999999999" as="targetPoint" />
            <Array as="points">
              <mxPoint x="996" y="630" />
              <mxPoint x="996" y="630" />
              <mxPoint x="996" y="725" />
            </Array>
          </mxGeometry>
        </mxCell>
        <mxCell id="B7yCwA9z2qg-xHh8Ljfs-24" value="&lt;div style=&quot;text-wrap-mode: nowrap;&quot;&gt;&lt;font face=&quot;Times New Roman&quot;&gt;&lt;span style=&quot;font-size: 14px;&quot;&gt;Display notification&lt;/span&gt;&lt;/font&gt;&lt;/div&gt;&lt;div style=&quot;text-wrap-mode: nowrap;&quot;&gt;&lt;font face=&quot;Times New Roman&quot;&gt;&lt;span style=&quot;font-size: 14px;&quot;&gt;on LCD/Blynk&lt;/span&gt;&lt;/font&gt;&lt;/div&gt;" style="shape=parallelogram;perimeter=parallelogramPerimeter;whiteSpace=wrap;html=1;fixedSize=1;" parent="WIyWlLk6GJQsqaUBKTNV-1" vertex="1">
          <mxGeometry x="1013.5" y="700.56" width="149.75" height="48.98" as="geometry" />
        </mxCell>
        <mxCell id="B7yCwA9z2qg-xHh8Ljfs-28" value="&lt;div style=&quot;forced-color-adjust: none; color: rgb(0, 0, 0); font-style: normal; font-variant-ligatures: normal; font-variant-caps: normal; font-weight: 400; letter-spacing: normal; orphans: 2; text-align: center; text-indent: 0px; text-transform: none; widows: 2; word-spacing: 0px; -webkit-text-stroke-width: 0px; white-space: nowrap; text-decoration-thickness: initial; text-decoration-style: initial; text-decoration-color: initial;&quot;&gt;&lt;font face=&quot;Times New Roman&quot;&gt;&lt;span style=&quot;font-size: 14px;&quot;&gt;Relay Toggled&amp;nbsp;&lt;/span&gt;&lt;/font&gt;&lt;/div&gt;&lt;div style=&quot;forced-color-adjust: none; color: rgb(0, 0, 0); font-style: normal; font-variant-ligatures: normal; font-variant-caps: normal; font-weight: 400; letter-spacing: normal; orphans: 2; text-align: center; text-indent: 0px; text-transform: none; widows: 2; word-spacing: 0px; -webkit-text-stroke-width: 0px; white-space: nowrap; text-decoration-thickness: initial; text-decoration-style: initial; text-decoration-color: initial;&quot;&gt;&lt;font face=&quot;Times New Roman&quot;&gt;&lt;span style=&quot;font-size: 14px;&quot;&gt;OFF?&lt;/span&gt;&lt;/font&gt;&lt;/div&gt;" style="rhombus;whiteSpace=wrap;html=1;direction=south;" parent="WIyWlLk6GJQsqaUBKTNV-1" vertex="1">
          <mxGeometry x="1113.75" y="516" width="250" height="55" as="geometry" />
        </mxCell>
        <mxCell id="B7yCwA9z2qg-xHh8Ljfs-29" value="" style="edgeStyle=orthogonalEdgeStyle;rounded=0;orthogonalLoop=1;jettySize=auto;html=1;endArrow=open;endFill=0;entryX=0;entryY=0.5;entryDx=0;entryDy=0;exitX=1;exitY=0.5;exitDx=0;exitDy=0;" parent="WIyWlLk6GJQsqaUBKTNV-1" source="B7yCwA9z2qg-xHh8Ljfs-1" target="B7yCwA9z2qg-xHh8Ljfs-28" edge="1">
          <mxGeometry relative="1" as="geometry">
            <mxPoint x="1235.5" y="586" as="sourcePoint" />
            <mxPoint x="1236.5" y="606" as="targetPoint" />
          </mxGeometry>
        </mxCell>
        <mxCell id="B7yCwA9z2qg-xHh8Ljfs-31" value="&lt;h6&gt;&lt;span style=&quot;color: light-dark(rgb(0, 0, 0), rgb(255, 255, 255)); font-weight: normal;&quot;&gt;&lt;font style=&quot;font-size: 12px;&quot; face=&quot;Times New Roman&quot;&gt;NO&lt;/font&gt;&lt;/span&gt;&lt;/h6&gt;&lt;div&gt;&lt;/div&gt;" style="text;html=1;align=center;verticalAlign=middle;resizable=0;points=[];autosize=1;strokeColor=none;fillColor=none;" parent="WIyWlLk6GJQsqaUBKTNV-1" vertex="1">
          <mxGeometry x="1236.75" y="546" width="40" height="70" as="geometry" />
        </mxCell>
        <mxCell id="B7yCwA9z2qg-xHh8Ljfs-32" value="" style="edgeStyle=orthogonalEdgeStyle;rounded=0;orthogonalLoop=1;jettySize=auto;html=1;endArrow=open;endFill=0;exitX=0.5;exitY=1;exitDx=0;exitDy=0;entryX=0.5;entryY=0;entryDx=0;entryDy=0;" parent="WIyWlLk6GJQsqaUBKTNV-1" source="B7yCwA9z2qg-xHh8Ljfs-28" target="B7yCwA9z2qg-xHh8Ljfs-10" edge="1">
          <mxGeometry relative="1" as="geometry">
            <mxPoint x="1141.7499999999998" y="543.5" as="sourcePoint" />
            <mxPoint x="963.5" y="596" as="targetPoint" />
          </mxGeometry>
        </mxCell>
        <mxCell id="B7yCwA9z2qg-xHh8Ljfs-33" value="" style="edgeStyle=orthogonalEdgeStyle;rounded=0;orthogonalLoop=1;jettySize=auto;html=1;endArrow=open;endFill=0;exitX=0.5;exitY=1;exitDx=0;exitDy=0;" parent="WIyWlLk6GJQsqaUBKTNV-1" source="B7yCwA9z2qg-xHh8Ljfs-23" target="B7yCwA9z2qg-xHh8Ljfs-24" edge="1">
          <mxGeometry relative="1" as="geometry">
            <mxPoint x="1203.5" y="646" as="sourcePoint" />
            <mxPoint x="1113.5" y="667" as="targetPoint" />
          </mxGeometry>
        </mxCell>
        <mxCell id="B7yCwA9z2qg-xHh8Ljfs-35" value="" style="edgeStyle=orthogonalEdgeStyle;rounded=0;orthogonalLoop=1;jettySize=auto;html=1;endArrow=open;endFill=0;exitX=1;exitY=0.5;exitDx=0;exitDy=0;entryX=0;entryY=0.5;entryDx=0;entryDy=0;entryPerimeter=0;" parent="WIyWlLk6GJQsqaUBKTNV-1" source="B7yCwA9z2qg-xHh8Ljfs-24" target="UsbTpY0gdDbQ-GkFnXvP-26" edge="1">
          <mxGeometry relative="1" as="geometry">
            <mxPoint x="1084" y="700" as="sourcePoint" />
            <mxPoint x="1084" y="721" as="targetPoint" />
          </mxGeometry>
        </mxCell>
        <mxCell id="B7yCwA9z2qg-xHh8Ljfs-37" value="&lt;h6&gt;&lt;span style=&quot;color: light-dark(rgb(0, 0, 0), rgb(255, 255, 255)); font-weight: normal;&quot;&gt;&lt;font style=&quot;font-size: 12px;&quot; face=&quot;Times New Roman&quot;&gt;YES&lt;/font&gt;&lt;/span&gt;&lt;/h6&gt;&lt;div&gt;&lt;/div&gt;" style="text;html=1;align=center;verticalAlign=middle;resizable=0;points=[];autosize=1;strokeColor=none;fillColor=none;" parent="WIyWlLk6GJQsqaUBKTNV-1" vertex="1">
          <mxGeometry x="1063.38" y="496" width="50" height="70" as="geometry" />
        </mxCell>
        <mxCell id="0xwIUamnbrjLXaq3DCZA-0" value="&lt;font face=&quot;Times New Roman&quot;&gt;START&lt;/font&gt;" style="ellipse;whiteSpace=wrap;html=1;" vertex="1" parent="WIyWlLk6GJQsqaUBKTNV-1">
          <mxGeometry x="749.5" y="100" width="75" height="40" as="geometry" />
        </mxCell>
        <mxCell id="0xwIUamnbrjLXaq3DCZA-1" value="&lt;div style=&quot;text-wrap-mode: nowrap;&quot;&gt;&lt;font style=&quot;font-size: 14px;&quot; face=&quot;Times New Roman&quot;&gt;Read Parameters&amp;nbsp;&lt;/font&gt;&lt;/div&gt;&lt;div style=&quot;text-wrap-mode: nowrap;&quot;&gt;&lt;font style=&quot;font-size: 14px;&quot;&gt;&lt;font face=&quot;Times New Roman&quot;&gt;from PZEM;&lt;/font&gt;&lt;span style=&quot;font-family: &amp;quot;Times New Roman&amp;quot;; background-color: transparent; color: light-dark(rgb(0, 0, 0), rgb(255, 255, 255));&quot;&gt;Voltage,&lt;/span&gt;&lt;/font&gt;&lt;/div&gt;&lt;div style=&quot;text-wrap-mode: nowrap;&quot;&gt;&lt;font style=&quot;font-size: 14px;&quot;&gt;&lt;span style=&quot;font-family: &amp;quot;Times New Roman&amp;quot;; background-color: transparent; color: light-dark(rgb(0, 0, 0), rgb(255, 255, 255));&quot;&gt;Current,&amp;nbsp;&lt;/span&gt;&lt;span style=&quot;font-family: &amp;quot;Times New Roman&amp;quot;; background-color: transparent; color: light-dark(rgb(0, 0, 0), rgb(255, 255, 255));&quot;&gt;Power,&amp;nbsp;&lt;/span&gt;&lt;span style=&quot;font-family: &amp;quot;Times New Roman&amp;quot;; background-color: transparent; color: light-dark(rgb(0, 0, 0), rgb(255, 255, 255));&quot;&gt;Energy&lt;/span&gt;&lt;/font&gt;&lt;/div&gt;" style="shape=parallelogram;perimeter=parallelogramPerimeter;whiteSpace=wrap;html=1;fixedSize=1;" vertex="1" parent="WIyWlLk6GJQsqaUBKTNV-1">
          <mxGeometry x="698.25" y="300" width="177.5" height="70" as="geometry" />
        </mxCell>
        <mxCell id="0xwIUamnbrjLXaq3DCZA-2" value="" style="edgeStyle=orthogonalEdgeStyle;rounded=0;orthogonalLoop=1;jettySize=auto;html=1;endArrow=open;endFill=0;entryX=0.5;entryY=0;entryDx=0;entryDy=0;entryPerimeter=0;" edge="1" parent="WIyWlLk6GJQsqaUBKTNV-1" source="0xwIUamnbrjLXaq3DCZA-3" target="0xwIUamnbrjLXaq3DCZA-7">
          <mxGeometry relative="1" as="geometry" />
        </mxCell>
        <mxCell id="0xwIUamnbrjLXaq3DCZA-3" value="&lt;div style=&quot;text-wrap-mode: nowrap;&quot;&gt;&lt;span style=&quot;background-color: transparent; color: light-dark(rgb(0, 0, 0), rgb(255, 255, 255));&quot;&gt;&lt;font style=&quot;font-size: 14px;&quot; face=&quot;Times New Roman&quot;&gt;Show Real-Time Values&lt;/font&gt;&lt;/span&gt;&lt;/div&gt;&lt;div style=&quot;text-wrap-mode: nowrap;&quot;&gt;&lt;font style=&quot;font-size: 14px; background-color: transparent; color: light-dark(rgb(0, 0, 0), rgb(255, 255, 255));&quot; face=&quot;Times New Roman&quot;&gt;&amp;nbsp;on LCD,&lt;/font&gt;&lt;span style=&quot;font-size: 14px; background-color: transparent; color: light-dark(rgb(0, 0, 0), rgb(255, 255, 255)); font-family: &amp;quot;Times New Roman&amp;quot;;&quot;&gt;&amp;nbsp;Blynk&amp;nbsp;&lt;/span&gt;&lt;span style=&quot;font-size: 14px; font-family: &amp;quot;Times New Roman&amp;quot;; background-color: transparent; color: light-dark(rgb(0, 0, 0), rgb(255, 255, 255));&quot;&gt;App&amp;nbsp;&lt;/span&gt;&lt;/div&gt;&lt;div style=&quot;text-wrap-mode: nowrap;&quot;&gt;&lt;span style=&quot;font-size: 14px; font-family: &amp;quot;Times New Roman&amp;quot;; background-color: transparent; color: light-dark(rgb(0, 0, 0), rgb(255, 255, 255));&quot;&gt;/Console (via WI-Fi)&lt;/span&gt;&lt;/div&gt;" style="shape=parallelogram;perimeter=parallelogramPerimeter;whiteSpace=wrap;html=1;fixedSize=1;" vertex="1" parent="WIyWlLk6GJQsqaUBKTNV-1">
          <mxGeometry x="692" y="544" width="190" height="66" as="geometry" />
        </mxCell>
        <mxCell id="0xwIUamnbrjLXaq3DCZA-4" value="&lt;font face=&quot;Times New Roman&quot;&gt;END&lt;/font&gt;" style="ellipse;whiteSpace=wrap;html=1;" vertex="1" parent="WIyWlLk6GJQsqaUBKTNV-1">
          <mxGeometry x="749.5" y="782" width="75" height="40" as="geometry" />
        </mxCell>
        <mxCell id="0xwIUamnbrjLXaq3DCZA-5" value="" style="endArrow=open;html=1;rounded=0;exitX=1;exitY=0.5;exitDx=0;exitDy=0;entryX=1;entryY=0.5;entryDx=0;entryDy=0;endFill=0;exitPerimeter=0;" edge="1" parent="WIyWlLk6GJQsqaUBKTNV-1" source="0xwIUamnbrjLXaq3DCZA-7" target="0xwIUamnbrjLXaq3DCZA-1">
          <mxGeometry width="50" height="50" relative="1" as="geometry">
            <mxPoint x="855.75" y="632" as="sourcePoint" />
            <mxPoint x="865.75" y="298" as="targetPoint" />
            <Array as="points">
              <mxPoint x="910" y="703" />
              <mxPoint x="910" y="335" />
            </Array>
          </mxGeometry>
        </mxCell>
        <mxCell id="0xwIUamnbrjLXaq3DCZA-6" value="" style="edgeStyle=orthogonalEdgeStyle;rounded=0;orthogonalLoop=1;jettySize=auto;html=1;endArrow=open;endFill=0;" edge="1" parent="WIyWlLk6GJQsqaUBKTNV-1" source="0xwIUamnbrjLXaq3DCZA-7" target="0xwIUamnbrjLXaq3DCZA-4">
          <mxGeometry relative="1" as="geometry" />
        </mxCell>
        <mxCell id="0xwIUamnbrjLXaq3DCZA-7" value="&lt;font style=&quot;font-size: 14px;&quot; face=&quot;Times New Roman&quot;&gt;Switch ON&lt;/font&gt;" style="strokeWidth=1;html=1;shape=mxgraph.flowchart.decision;whiteSpace=wrap;" vertex="1" parent="WIyWlLk6GJQsqaUBKTNV-1">
          <mxGeometry x="718.25" y="658" width="137.5" height="90" as="geometry" />
        </mxCell>
        <mxCell id="0xwIUamnbrjLXaq3DCZA-8" value="&lt;h6&gt;&lt;span style=&quot;color: light-dark(rgb(0, 0, 0), rgb(255, 255, 255)); font-weight: normal;&quot;&gt;&lt;font style=&quot;font-size: 12px;&quot; face=&quot;Times New Roman&quot;&gt;NO&lt;/font&gt;&lt;/span&gt;&lt;/h6&gt;&lt;div&gt;&lt;/div&gt;" style="text;html=1;align=center;verticalAlign=middle;resizable=0;points=[];autosize=1;strokeColor=none;fillColor=none;" vertex="1" parent="WIyWlLk6GJQsqaUBKTNV-1">
          <mxGeometry x="783.5" y="726" width="40" height="70" as="geometry" />
        </mxCell>
        <mxCell id="0xwIUamnbrjLXaq3DCZA-9" value="&lt;div style=&quot;text-wrap-mode: nowrap;&quot;&gt;&lt;font style=&quot;font-size: 14px;&quot; face=&quot;Times New Roman&quot;&gt;Process Data on ESP32;&lt;/font&gt;&lt;/div&gt;&lt;div style=&quot;text-wrap-mode: nowrap;&quot;&gt;&lt;font style=&quot;font-size: 14px;&quot; face=&quot;Times New Roman&quot;&gt;Format and Analyze&amp;nbsp;&lt;/font&gt;&lt;/div&gt;&lt;div style=&quot;text-wrap-mode: nowrap;&quot;&gt;&lt;font style=&quot;font-size: 14px;&quot; face=&quot;Times New Roman&quot;&gt;Sensor Data&lt;/font&gt;&lt;/div&gt;" style="rounded=0;whiteSpace=wrap;html=1;" vertex="1" parent="WIyWlLk6GJQsqaUBKTNV-1">
          <mxGeometry x="705.75" y="420" width="162.5" height="70" as="geometry" />
        </mxCell>
        <mxCell id="0xwIUamnbrjLXaq3DCZA-10" value="" style="edgeStyle=orthogonalEdgeStyle;rounded=0;orthogonalLoop=1;jettySize=auto;html=1;endArrow=open;endFill=0;exitX=0.5;exitY=1;exitDx=0;exitDy=0;entryX=0.5;entryY=0;entryDx=0;entryDy=0;" edge="1" parent="WIyWlLk6GJQsqaUBKTNV-1" source="0xwIUamnbrjLXaq3DCZA-9" target="0xwIUamnbrjLXaq3DCZA-3">
          <mxGeometry relative="1" as="geometry">
            <mxPoint x="779.5" y="509" as="sourcePoint" />
            <mxPoint x="787.5" y="529" as="targetPoint" />
          </mxGeometry>
        </mxCell>
        <mxCell id="0xwIUamnbrjLXaq3DCZA-11" value="&lt;h6&gt;&lt;span style=&quot;color: light-dark(rgb(0, 0, 0), rgb(255, 255, 255)); font-weight: normal;&quot;&gt;&lt;font style=&quot;font-size: 12px;&quot; face=&quot;Times New Roman&quot;&gt;YES&lt;/font&gt;&lt;/span&gt;&lt;/h6&gt;&lt;div&gt;&lt;/div&gt;" style="text;html=1;align=center;verticalAlign=middle;resizable=0;points=[];autosize=1;strokeColor=none;fillColor=none;" vertex="1" parent="WIyWlLk6GJQsqaUBKTNV-1">
          <mxGeometry x="850.5" y="653" width="50" height="70" as="geometry" />
        </mxCell>
        <mxCell id="0xwIUamnbrjLXaq3DCZA-12" value="" style="edgeStyle=orthogonalEdgeStyle;rounded=0;orthogonalLoop=1;jettySize=auto;html=1;endArrow=open;endFill=0;exitX=0.5;exitY=1;exitDx=0;exitDy=0;entryX=0.5;entryY=0;entryDx=0;entryDy=0;" edge="1" parent="WIyWlLk6GJQsqaUBKTNV-1" source="0xwIUamnbrjLXaq3DCZA-1" target="0xwIUamnbrjLXaq3DCZA-9">
          <mxGeometry relative="1" as="geometry">
            <mxPoint x="779.5" y="539" as="sourcePoint" />
            <mxPoint x="779.5" y="592" as="targetPoint" />
          </mxGeometry>
        </mxCell>
        <mxCell id="0xwIUamnbrjLXaq3DCZA-13" value="" style="edgeStyle=orthogonalEdgeStyle;rounded=0;orthogonalLoop=1;jettySize=auto;html=1;endArrow=open;endFill=0;exitX=0.5;exitY=1;exitDx=0;exitDy=0;entryX=0.5;entryY=0;entryDx=0;entryDy=0;" edge="1" parent="WIyWlLk6GJQsqaUBKTNV-1" source="0xwIUamnbrjLXaq3DCZA-14" target="0xwIUamnbrjLXaq3DCZA-1">
          <mxGeometry relative="1" as="geometry">
            <mxPoint x="787" y="249" as="sourcePoint" />
            <mxPoint x="779.5" y="449" as="targetPoint" />
          </mxGeometry>
        </mxCell>
        <mxCell id="0xwIUamnbrjLXaq3DCZA-14" value="&lt;span style=&quot;color: light-dark(rgb(0, 0, 0), rgb(255, 255, 255)); text-wrap-mode: nowrap; background-color: transparent;&quot;&gt;&lt;font style=&quot;font-size: 14px;&quot; face=&quot;Times New Roman&quot;&gt;Initialize Components;&lt;/font&gt;&lt;/span&gt;&lt;div style=&quot;text-wrap-mode: nowrap;&quot;&gt;&lt;font style=&quot;font-size: 14px;&quot;&gt;&lt;font face=&quot;Times New Roman&quot;&gt;PZEM,&amp;nbsp;&lt;/font&gt;&lt;span style=&quot;font-family: &amp;quot;Times New Roman&amp;quot;; background-color: transparent; color: light-dark(rgb(0, 0, 0), rgb(255, 255, 255));&quot;&gt;ESP32,&amp;nbsp;&lt;/span&gt;&lt;span style=&quot;font-family: &amp;quot;Times New Roman&amp;quot;; background-color: transparent; color: light-dark(rgb(0, 0, 0), rgb(255, 255, 255));&quot;&gt;LCD&lt;/span&gt;&lt;/font&gt;&lt;/div&gt;&lt;div style=&quot;text-wrap-mode: nowrap;&quot;&gt;&lt;font style=&quot;font-size: 14px;&quot; face=&quot;Times New Roman&quot;&gt;Connect to Wi-Fi&amp;nbsp;&lt;/font&gt;&lt;/div&gt;&lt;div style=&quot;text-wrap-mode: nowrap;&quot;&gt;&lt;font style=&quot;font-size: 14px;&quot;&gt;&lt;font style=&quot;&quot; face=&quot;Times New Roman&quot;&gt;and&amp;nbsp;&lt;/font&gt;&lt;span style=&quot;font-family: &amp;quot;Times New Roman&amp;quot;; background-color: transparent; color: light-dark(rgb(0, 0, 0), rgb(255, 255, 255));&quot;&gt;Blynk Server&lt;/span&gt;&lt;/font&gt;&lt;/div&gt;" style="shape=hexagon;perimeter=hexagonPerimeter2;whiteSpace=wrap;html=1;fixedSize=1;" vertex="1" parent="WIyWlLk6GJQsqaUBKTNV-1">
          <mxGeometry x="692" y="176" width="190" height="80" as="geometry" />
        </mxCell>
        <mxCell id="0xwIUamnbrjLXaq3DCZA-15" value="" style="edgeStyle=orthogonalEdgeStyle;rounded=0;orthogonalLoop=1;jettySize=auto;html=1;endArrow=open;endFill=0;exitX=0.5;exitY=1;exitDx=0;exitDy=0;entryX=0.5;entryY=0;entryDx=0;entryDy=0;" edge="1" parent="WIyWlLk6GJQsqaUBKTNV-1" source="0xwIUamnbrjLXaq3DCZA-0" target="0xwIUamnbrjLXaq3DCZA-14">
          <mxGeometry relative="1" as="geometry">
            <mxPoint x="779.5" y="249" as="sourcePoint" />
            <mxPoint x="779.5" y="289" as="targetPoint" />
          </mxGeometry>
        </mxCell>
        <mxCell id="0xwIUamnbrjLXaq3DCZA-16" value="&lt;font face=&quot;Times New Roman&quot;&gt;START&lt;/font&gt;" style="ellipse;whiteSpace=wrap;html=1;" vertex="1" parent="WIyWlLk6GJQsqaUBKTNV-1">
          <mxGeometry x="1560.5" y="100" width="75" height="40" as="geometry" />
        </mxCell>
        <mxCell id="0xwIUamnbrjLXaq3DCZA-17" value="&lt;div style=&quot;&quot;&gt;&lt;font style=&quot;font-size: 14px;&quot; face=&quot;Times New Roman&quot;&gt;&lt;span style=&quot;text-wrap-mode: nowrap;&quot;&gt;P&lt;/span&gt;repare 24-Hour Input&amp;nbsp;&lt;/font&gt;&lt;span style=&quot;font-size: 14px; font-family: &amp;quot;Times New Roman&amp;quot;; background-color: transparent; color: light-dark(rgb(0, 0, 0), rgb(255, 255, 255));&quot;&gt;Sequence&lt;/span&gt;&lt;/div&gt;" style="shape=parallelogram;perimeter=parallelogramPerimeter;whiteSpace=wrap;html=1;fixedSize=1;" vertex="1" parent="WIyWlLk6GJQsqaUBKTNV-1">
          <mxGeometry x="1509.25" y="245" width="177.5" height="43" as="geometry" />
        </mxCell>
        <mxCell id="0xwIUamnbrjLXaq3DCZA-18" value="&lt;div style=&quot;text-wrap-mode: nowrap;&quot;&gt;&lt;span style=&quot;background-color: transparent; color: light-dark(rgb(0, 0, 0), rgb(255, 255, 255)); font-family: &amp;quot;Times New Roman&amp;quot;; font-size: 14px;&quot;&gt;Receive API&lt;/span&gt;&lt;/div&gt;&lt;div style=&quot;text-wrap-mode: nowrap;&quot;&gt;&lt;span style=&quot;background-color: transparent; color: light-dark(rgb(0, 0, 0), rgb(255, 255, 255)); font-family: &amp;quot;Times New Roman&amp;quot;; font-size: 14px;&quot;&gt;Response&lt;/span&gt;&lt;/div&gt;" style="shape=parallelogram;perimeter=parallelogramPerimeter;whiteSpace=wrap;html=1;fixedSize=1;" vertex="1" parent="WIyWlLk6GJQsqaUBKTNV-1">
          <mxGeometry x="1503" y="410" width="190" height="37" as="geometry" />
        </mxCell>
        <mxCell id="0xwIUamnbrjLXaq3DCZA-19" value="&lt;font face=&quot;Times New Roman&quot;&gt;END&lt;/font&gt;" style="ellipse;whiteSpace=wrap;html=1;" vertex="1" parent="WIyWlLk6GJQsqaUBKTNV-1">
          <mxGeometry x="1560.5" y="782" width="75" height="40" as="geometry" />
        </mxCell>
        <mxCell id="0xwIUamnbrjLXaq3DCZA-20" value="" style="endArrow=open;html=1;rounded=0;exitX=1;exitY=0.5;exitDx=0;exitDy=0;entryX=1;entryY=0.5;entryDx=0;entryDy=0;endFill=0;exitPerimeter=0;" edge="1" parent="WIyWlLk6GJQsqaUBKTNV-1" source="0xwIUamnbrjLXaq3DCZA-22" target="0xwIUamnbrjLXaq3DCZA-17">
          <mxGeometry width="50" height="50" relative="1" as="geometry">
            <mxPoint x="1652.75" y="644" as="sourcePoint" />
            <mxPoint x="1662.75" y="258.5" as="targetPoint" />
            <Array as="points">
              <mxPoint x="1709" y="711" />
              <mxPoint x="1709" y="267" />
            </Array>
          </mxGeometry>
        </mxCell>
        <mxCell id="0xwIUamnbrjLXaq3DCZA-21" value="" style="edgeStyle=orthogonalEdgeStyle;rounded=0;orthogonalLoop=1;jettySize=auto;html=1;endArrow=open;endFill=0;" edge="1" parent="WIyWlLk6GJQsqaUBKTNV-1" source="0xwIUamnbrjLXaq3DCZA-22" target="0xwIUamnbrjLXaq3DCZA-19">
          <mxGeometry relative="1" as="geometry" />
        </mxCell>
        <mxCell id="0xwIUamnbrjLXaq3DCZA-22" value="&lt;font style=&quot;font-size: 14px;&quot; face=&quot;Times New Roman&quot;&gt;Switch ON&lt;/font&gt;" style="strokeWidth=1;html=1;shape=mxgraph.flowchart.decision;whiteSpace=wrap;" vertex="1" parent="WIyWlLk6GJQsqaUBKTNV-1">
          <mxGeometry x="1543" y="676" width="110" height="71" as="geometry" />
        </mxCell>
        <mxCell id="0xwIUamnbrjLXaq3DCZA-23" value="&lt;h6&gt;&lt;span style=&quot;color: light-dark(rgb(0, 0, 0), rgb(255, 255, 255)); font-weight: normal;&quot;&gt;&lt;font style=&quot;font-size: 12px;&quot; face=&quot;Times New Roman&quot;&gt;NO&lt;/font&gt;&lt;/span&gt;&lt;/h6&gt;&lt;div&gt;&lt;/div&gt;" style="text;html=1;align=center;verticalAlign=middle;resizable=0;points=[];autosize=1;strokeColor=none;fillColor=none;" vertex="1" parent="WIyWlLk6GJQsqaUBKTNV-1">
          <mxGeometry x="1594.5" y="726" width="40" height="70" as="geometry" />
        </mxCell>
        <mxCell id="0xwIUamnbrjLXaq3DCZA-24" value="&lt;div style=&quot;text-wrap-mode: nowrap;&quot;&gt;&lt;span style=&quot;font-size: 14px; font-family: &amp;quot;Times New Roman&amp;quot;; background-color: transparent; color: light-dark(rgb(0, 0, 0), rgb(255, 255, 255));&quot;&gt;Send HTTPS&amp;nbsp;&lt;/span&gt;&lt;/div&gt;&lt;div style=&quot;text-wrap-mode: nowrap;&quot;&gt;&lt;span style=&quot;font-size: 14px; font-family: &amp;quot;Times New Roman&amp;quot;; background-color: transparent; color: light-dark(rgb(0, 0, 0), rgb(255, 255, 255));&quot;&gt;POST&amp;nbsp;&lt;/span&gt;&lt;span style=&quot;background-color: transparent; color: light-dark(rgb(0, 0, 0), rgb(255, 255, 255)); font-family: &amp;quot;Times New Roman&amp;quot;; font-size: 14px;&quot;&gt;Request&lt;/span&gt;&lt;/div&gt;" style="rounded=0;whiteSpace=wrap;html=1;" vertex="1" parent="WIyWlLk6GJQsqaUBKTNV-1">
          <mxGeometry x="1516.75" y="329" width="162.5" height="40" as="geometry" />
        </mxCell>
        <mxCell id="0xwIUamnbrjLXaq3DCZA-25" value="" style="edgeStyle=orthogonalEdgeStyle;rounded=0;orthogonalLoop=1;jettySize=auto;html=1;endArrow=open;endFill=0;exitX=0.5;exitY=1;exitDx=0;exitDy=0;entryX=0.5;entryY=0;entryDx=0;entryDy=0;" edge="1" parent="WIyWlLk6GJQsqaUBKTNV-1" source="0xwIUamnbrjLXaq3DCZA-24" target="0xwIUamnbrjLXaq3DCZA-18">
          <mxGeometry relative="1" as="geometry">
            <mxPoint x="1590.5" y="503" as="sourcePoint" />
            <mxPoint x="1598.5" y="523" as="targetPoint" />
          </mxGeometry>
        </mxCell>
        <mxCell id="0xwIUamnbrjLXaq3DCZA-26" value="&lt;h6&gt;&lt;span style=&quot;color: light-dark(rgb(0, 0, 0), rgb(255, 255, 255)); font-weight: normal;&quot;&gt;&lt;font style=&quot;font-size: 12px;&quot; face=&quot;Times New Roman&quot;&gt;YES&lt;/font&gt;&lt;/span&gt;&lt;/h6&gt;&lt;div&gt;&lt;/div&gt;" style="text;html=1;align=center;verticalAlign=middle;resizable=0;points=[];autosize=1;strokeColor=none;fillColor=none;" vertex="1" parent="WIyWlLk6GJQsqaUBKTNV-1">
          <mxGeometry x="1648" y="658" width="50" height="70" as="geometry" />
        </mxCell>
        <mxCell id="0xwIUamnbrjLXaq3DCZA-27" value="" style="edgeStyle=orthogonalEdgeStyle;rounded=0;orthogonalLoop=1;jettySize=auto;html=1;endArrow=open;endFill=0;exitX=0.5;exitY=1;exitDx=0;exitDy=0;entryX=0.5;entryY=0;entryDx=0;entryDy=0;" edge="1" parent="WIyWlLk6GJQsqaUBKTNV-1" source="0xwIUamnbrjLXaq3DCZA-28" target="0xwIUamnbrjLXaq3DCZA-17">
          <mxGeometry relative="1" as="geometry">
            <mxPoint x="1598" y="250" as="sourcePoint" />
            <mxPoint x="1590.5" y="450" as="targetPoint" />
          </mxGeometry>
        </mxCell>
        <mxCell id="0xwIUamnbrjLXaq3DCZA-28" value="&lt;span style=&quot;color: light-dark(rgb(0, 0, 0), rgb(255, 255, 255)); text-wrap-mode: nowrap; background-color: transparent;&quot;&gt;&lt;font style=&quot;font-size: 14px;&quot; face=&quot;Times New Roman&quot;&gt;Initialize&lt;/font&gt;&lt;/span&gt;&lt;div&gt;&lt;span style=&quot;color: light-dark(rgb(0, 0, 0), rgb(255, 255, 255)); text-wrap-mode: nowrap; background-color: transparent;&quot;&gt;&lt;font style=&quot;font-size: 14px;&quot; face=&quot;Times New Roman&quot;&gt;HTTPS&amp;nbsp;&lt;/font&gt;&lt;/span&gt;&lt;span style=&quot;font-size: 14px; font-family: &amp;quot;Times New Roman&amp;quot;; background-color: transparent; color: light-dark(rgb(0, 0, 0), rgb(255, 255, 255)); text-wrap-mode: nowrap;&quot;&gt;Client&lt;/span&gt;&lt;/div&gt;" style="shape=hexagon;perimeter=hexagonPerimeter2;whiteSpace=wrap;html=1;fixedSize=1;" vertex="1" parent="WIyWlLk6GJQsqaUBKTNV-1">
          <mxGeometry x="1523" y="173" width="150" height="40" as="geometry" />
        </mxCell>
        <mxCell id="0xwIUamnbrjLXaq3DCZA-29" value="" style="edgeStyle=orthogonalEdgeStyle;rounded=0;orthogonalLoop=1;jettySize=auto;html=1;endArrow=open;endFill=0;exitX=0.5;exitY=1;exitDx=0;exitDy=0;entryX=0.5;entryY=0;entryDx=0;entryDy=0;" edge="1" parent="WIyWlLk6GJQsqaUBKTNV-1" source="0xwIUamnbrjLXaq3DCZA-16" target="0xwIUamnbrjLXaq3DCZA-28">
          <mxGeometry relative="1" as="geometry">
            <mxPoint x="1590.5" y="250" as="sourcePoint" />
            <mxPoint x="1590.5" y="290" as="targetPoint" />
          </mxGeometry>
        </mxCell>
        <mxCell id="0xwIUamnbrjLXaq3DCZA-30" value="&lt;div style=&quot;text-wrap-mode: nowrap;&quot;&gt;&lt;font face=&quot;Times New Roman&quot;&gt;&lt;span style=&quot;font-size: 14px;&quot;&gt;Denormalize&lt;/span&gt;&lt;/font&gt;&lt;/div&gt;&lt;div style=&quot;text-wrap-mode: nowrap;&quot;&gt;&lt;font face=&quot;Times New Roman&quot;&gt;&lt;span style=&quot;font-size: 14px;&quot;&gt;Prediction&lt;/span&gt;&lt;/font&gt;&lt;/div&gt;" style="rounded=0;whiteSpace=wrap;html=1;" vertex="1" parent="WIyWlLk6GJQsqaUBKTNV-1">
          <mxGeometry x="1516.75" y="491" width="162.5" height="40" as="geometry" />
        </mxCell>
        <mxCell id="0xwIUamnbrjLXaq3DCZA-31" value="" style="edgeStyle=orthogonalEdgeStyle;rounded=0;orthogonalLoop=1;jettySize=auto;html=1;endArrow=open;endFill=0;exitX=0.5;exitY=1;exitDx=0;exitDy=0;entryX=0.5;entryY=0;entryDx=0;entryDy=0;" edge="1" parent="WIyWlLk6GJQsqaUBKTNV-1" source="0xwIUamnbrjLXaq3DCZA-17" target="0xwIUamnbrjLXaq3DCZA-24">
          <mxGeometry relative="1" as="geometry">
            <mxPoint x="1593" y="220" as="sourcePoint" />
            <mxPoint x="1593" y="247" as="targetPoint" />
          </mxGeometry>
        </mxCell>
        <mxCell id="0xwIUamnbrjLXaq3DCZA-32" value="&lt;div style=&quot;text-wrap-mode: nowrap;&quot;&gt;&lt;font face=&quot;Times New Roman&quot;&gt;&lt;span style=&quot;font-size: 14px;&quot;&gt;Display Next&amp;nbsp;&lt;/span&gt;&lt;/font&gt;&lt;span style=&quot;font-size: 14px; font-family: &amp;quot;Times New Roman&amp;quot;; background-color: transparent; color: light-dark(rgb(0, 0, 0), rgb(255, 255, 255));&quot;&gt;Hourly&amp;nbsp;&lt;/span&gt;&lt;/div&gt;&lt;div style=&quot;text-wrap-mode: nowrap;&quot;&gt;&lt;span style=&quot;font-size: 14px; font-family: &amp;quot;Times New Roman&amp;quot;; background-color: transparent; color: light-dark(rgb(0, 0, 0), rgb(255, 255, 255));&quot;&gt;Energy Consumption&lt;/span&gt;&lt;/div&gt;&lt;div style=&quot;text-wrap-mode: nowrap;&quot;&gt;&lt;font face=&quot;Times New Roman&quot;&gt;&lt;span style=&quot;font-size: 14px;&quot;&gt;on Blynk and LCD&lt;/span&gt;&lt;/font&gt;&lt;/div&gt;" style="shape=parallelogram;perimeter=parallelogramPerimeter;whiteSpace=wrap;html=1;fixedSize=1;" vertex="1" parent="WIyWlLk6GJQsqaUBKTNV-1">
          <mxGeometry x="1503" y="575" width="190" height="60" as="geometry" />
        </mxCell>
        <mxCell id="0xwIUamnbrjLXaq3DCZA-33" value="" style="edgeStyle=orthogonalEdgeStyle;rounded=0;orthogonalLoop=1;jettySize=auto;html=1;endArrow=open;endFill=0;exitX=0.5;exitY=1;exitDx=0;exitDy=0;entryX=0.5;entryY=0;entryDx=0;entryDy=0;" edge="1" parent="WIyWlLk6GJQsqaUBKTNV-1" source="0xwIUamnbrjLXaq3DCZA-18" target="0xwIUamnbrjLXaq3DCZA-30">
          <mxGeometry relative="1" as="geometry">
            <mxPoint x="1600" y="421" as="sourcePoint" />
            <mxPoint x="1600" y="460" as="targetPoint" />
          </mxGeometry>
        </mxCell>
        <mxCell id="0xwIUamnbrjLXaq3DCZA-34" value="" style="edgeStyle=orthogonalEdgeStyle;rounded=0;orthogonalLoop=1;jettySize=auto;html=1;endArrow=open;endFill=0;exitX=0.5;exitY=1;exitDx=0;exitDy=0;entryX=0.5;entryY=0;entryDx=0;entryDy=0;" edge="1" parent="WIyWlLk6GJQsqaUBKTNV-1" source="0xwIUamnbrjLXaq3DCZA-30" target="0xwIUamnbrjLXaq3DCZA-32">
          <mxGeometry relative="1" as="geometry">
            <mxPoint x="1604" y="490" as="sourcePoint" />
            <mxPoint x="1604" y="522" as="targetPoint" />
          </mxGeometry>
        </mxCell>
        <mxCell id="0xwIUamnbrjLXaq3DCZA-35" value="" style="edgeStyle=orthogonalEdgeStyle;rounded=0;orthogonalLoop=1;jettySize=auto;html=1;endArrow=open;endFill=0;exitX=0.5;exitY=1;exitDx=0;exitDy=0;entryX=0.5;entryY=0;entryDx=0;entryDy=0;entryPerimeter=0;" edge="1" parent="WIyWlLk6GJQsqaUBKTNV-1" source="0xwIUamnbrjLXaq3DCZA-32" target="0xwIUamnbrjLXaq3DCZA-22">
          <mxGeometry relative="1" as="geometry">
            <mxPoint x="1608" y="570" as="sourcePoint" />
            <mxPoint x="1608" y="600" as="targetPoint" />
          </mxGeometry>
        </mxCell>
        <mxCell id="0xwIUamnbrjLXaq3DCZA-36" value="&lt;font style=&quot;font-size: 24px;&quot; face=&quot;Times New Roman&quot;&gt;(a)&lt;/font&gt;" style="text;strokeColor=none;align=center;fillColor=none;html=1;verticalAlign=middle;whiteSpace=wrap;rounded=0;" vertex="1" parent="WIyWlLk6GJQsqaUBKTNV-1">
          <mxGeometry x="757" y="841" width="60" height="30" as="geometry" />
        </mxCell>
        <mxCell id="0xwIUamnbrjLXaq3DCZA-37" value="&lt;font style=&quot;font-size: 24px;&quot; face=&quot;Times New Roman&quot;&gt;(b)&lt;/font&gt;" style="text;strokeColor=none;align=center;fillColor=none;html=1;verticalAlign=middle;whiteSpace=wrap;rounded=0;" vertex="1" parent="WIyWlLk6GJQsqaUBKTNV-1">
          <mxGeometry x="1209.25" y="841" width="60" height="30" as="geometry" />
        </mxCell>
        <mxCell id="0xwIUamnbrjLXaq3DCZA-40" value="" style="edgeStyle=orthogonalEdgeStyle;rounded=0;orthogonalLoop=1;jettySize=auto;html=1;endArrow=open;endFill=0;entryX=0.5;entryY=0;entryDx=0;entryDy=0;exitX=-0.008;exitY=0.37;exitDx=0;exitDy=0;exitPerimeter=0;" edge="1" parent="WIyWlLk6GJQsqaUBKTNV-1" source="UsbTpY0gdDbQ-GkFnXvP-30" target="UsbTpY0gdDbQ-GkFnXvP-12">
          <mxGeometry relative="1" as="geometry">
            <mxPoint x="1239" y="776" as="sourcePoint" />
            <mxPoint x="1239" y="792" as="targetPoint" />
          </mxGeometry>
        </mxCell>
        <mxCell id="0xwIUamnbrjLXaq3DCZA-41" value="&lt;font style=&quot;font-size: 24px;&quot; face=&quot;Times New Roman&quot;&gt;(c)&lt;/font&gt;" style="text;strokeColor=none;align=center;fillColor=none;html=1;verticalAlign=middle;whiteSpace=wrap;rounded=0;" vertex="1" parent="WIyWlLk6GJQsqaUBKTNV-1">
          <mxGeometry x="1568" y="841" width="60" height="30" as="geometry" />
        </mxCell>
      </root>
    </mxGraphModel>
  </diagram>
</mxfile>
